<?xml version="1.0" encoding="iso-8859-1"?>
<!-- Generator: Adobe Illustrator 19.0.0, SVG Export Plug-In . SVG Version: 6.00 Build 0)  -->
<svg version="1.1" id="Layer_1" xmlns="http://www.w3.org/2000/svg" xmlns:xlink="http://www.w3.org/1999/xlink" x="0px" y="0px"
	 viewBox="0 0 400 400" style="enable-background:new 0 0 400 400;" xml:space="preserve">
<g>
	<rect style="fill:#D1D5D8;" width="400" height="400"/>
	<path style="fill:#EFEFEF;" d="M360,40v166c-26.67,0-26.67,20-53.34,20c-19.31,0-24.64-10.48-36.23-16.27
		c-4.42-2.21-9.75-3.73-17.11-3.73c-26.66,0-26.66,20-53.33,20c-26.66,0-26.66-20-53.33-20c-6.44,0-11.32,1.16-15.4,2.93
		c-12.82,5.56-17.7,17.07-37.93,17.07c-26.67,0-26.67-20-53.33-20V40H360z"/>
	<path style="fill:#F4A026;" d="M270.43,208.73c-4.42-2.21-9.75-3.73-17.11-3.73c-26.66,0-26.66,20-53.33,20
		c-26.66,0-26.66-20-53.33-20c-6.44,0-11.32,1.16-15.4,2.93c4-34.86,33.61-61.93,69.54-61.93
		C237.01,146,266.79,173.49,270.43,208.73z"/>
	<path style="fill:#4898DA;" d="M360,202v45c-26.67,0-26.67,20-53.34,20c-26.67,0-26.67-20-53.34-20c-26.66,0-26.66,20-53.33,20
		c-26.66,0-26.66-20-53.33-20s-26.67,20-53.33,20c-26.67,0-26.67-20-53.33-20v-45c26.66,0,26.66,20,53.33,20
		c20.23,0,25.11-11.51,37.93-17.07c4.08-1.77,8.96-2.93,15.4-2.93c26.67,0,26.67,20,53.33,20c26.67,0,26.67-20,53.33-20
		c7.36,0,12.69,1.52,17.11,3.73c11.59,5.79,16.92,16.27,36.23,16.27C333.33,222,333.33,202,360,202z"/>
	<path style="fill:#7CB0DA;" d="M360,244v45c-26.67,0-26.67,20-53.34,20c-26.67,0-26.67-20-53.34-20c-26.66,0-26.66,20-53.33,20
		c-26.66,0-26.66-20-53.33-20s-26.67,20-53.33,20c-26.67,0-26.67-20-53.33-20v-45c26.66,0,26.66,20,53.33,20
		c26.66,0,26.66-20,53.33-20s26.67,20,53.33,20c26.67,0,26.67-20,53.33-20c26.67,0,26.67,20,53.34,20S333.33,244,360,244z"/>
	<path style="fill:#4898DA;" d="M360,286v55H40v-55c26.66,0,26.66,20,53.33,20c26.66,0,26.66-20,53.33-20s26.67,20,53.33,20
		c26.67,0,26.67-20,53.33-20c26.67,0,26.67,20,53.34,20S333.33,286,360,286z"/>
	<path style="fill:#F4A026;" d="M200,128.2c-4.419,0-8-3.581-8-8v-40c0-4.419,3.581-8,8-8s8,3.581,8,8v40
		C208,124.619,204.419,128.2,200,128.2z"/>
	<path style="fill:#F4A026;" d="M247.993,141.063c-1.357,0-2.733-0.346-3.993-1.073c-3.826-2.209-5.137-7.102-2.928-10.928
		l20-34.641c2.209-3.827,7.102-5.139,10.928-2.928c3.826,2.209,5.137,7.102,2.928,10.928l-20,34.641
		C253.446,139.628,250.757,141.063,247.993,141.063z"/>
	<path style="fill:#F4A026;" d="M116.854,176.201c-1.357,0-2.733-0.346-3.993-1.073L78.22,155.129
		c-3.826-2.209-5.137-7.102-2.928-10.928c2.209-3.827,7.102-5.138,10.928-2.928l34.641,20c3.826,2.209,5.137,7.102,2.928,10.928
		C122.308,174.767,119.619,176.201,116.854,176.201z"/>
	<path style="fill:#F4A026;" d="M283.146,176.201c-2.765,0-5.454-1.435-6.936-4.001c-2.209-3.826-0.898-8.719,2.928-10.928
		l34.641-20c3.827-2.207,8.719-0.898,10.928,2.928c2.209,3.826,0.898,8.719-2.928,10.928l-34.641,19.999
		C285.878,175.855,284.503,176.201,283.146,176.201z"/>
	<path style="fill:#F4A026;" d="M152.007,141.063c-2.765,0-5.454-1.435-6.936-4.002l-20-34.641
		c-2.209-3.826-0.898-8.719,2.928-10.928c3.827-2.208,8.719-0.897,10.928,2.928l20,34.641c2.209,3.826,0.898,8.719-2.928,10.928
		C154.74,140.717,153.365,141.063,152.007,141.063z"/>
</g>
<g>
</g>
<g>
</g>
<g>
</g>
<g>
</g>
<g>
</g>
<g>
</g>
<g>
</g>
<g>
</g>
<g>
</g>
<g>
</g>
<g>
</g>
<g>
</g>
<g>
</g>
<g>
</g>
<g>
</g>
</svg>
