<?xml version="1.0" encoding="iso-8859-1"?>
<!-- Generator: Adobe Illustrator 18.0.0, SVG Export Plug-In . SVG Version: 6.00 Build 0)  -->
<!DOCTYPE svg PUBLIC "-//W3C//DTD SVG 1.1//EN" "http://www.w3.org/Graphics/SVG/1.1/DTD/svg11.dtd">
<svg version="1.1" id="Capa_1" xmlns="http://www.w3.org/2000/svg" xmlns:xlink="http://www.w3.org/1999/xlink" x="0px" y="0px"
	 viewBox="0 0 297 297" style="enable-background:new 0 0 297 297;" xml:space="preserve">
<g>
	<g>
		<path style="fill:#3C5768;" d="M151.856,22.185h-6.711c-42.058,0-76.152,34.094-76.152,76.152v16.607h26.503V88.442
			c0-29.274,23.731-53.005,53.005-53.005h0c29.274,0,53.005,23.731,53.005,53.005v26.503h26.503V98.337
			C228.008,56.28,193.913,22.185,151.856,22.185z"/>
	</g>
	<g style="opacity:0.3;">
		<g>
			<path style="fill:#3C5768;" d="M134.992,35.437L134.992,35.437c-29.274,0-53.005,23.731-53.005,53.005v26.503h13.508V88.442
				c0-26.984,20.169-49.242,46.251-52.562C139.533,35.598,137.282,35.437,134.992,35.437z"/>
		</g>
		<g>
			<path style="fill:#3C5768;" d="M151.856,22.185h-6.711c-1.14,0-2.271,0.036-3.398,0.086C182.226,24.05,214.5,57.419,214.5,98.337
				v16.607h13.508V98.337C228.008,56.28,193.913,22.185,151.856,22.185z"/>
		</g>
	</g>
	<g>
		<path style="fill:#1ABC9C;" d="M41.5,109.815c-22.92,0-41.5,18.58-41.5,41.5v82c0,22.92,18.58,41.5,41.5,41.5h7.333v-165H41.5z"/>
	</g>
	<g style="opacity:0.4;">
		<path style="fill:#1ABC9C;" d="M16.5,216.815v-82c0-7.217,1.845-14.003,5.085-19.915C8.723,121.95,0,135.612,0,151.315v82
			c0,22.92,18.58,41.5,41.5,41.5h7.333v-17.528C30.327,253.112,16.5,236.583,16.5,216.815z"/>
	</g>
	<g>
		<rect x="82.834" y="109.815" style="fill:#1ABC9C;" width="132.667" height="165"/>
	</g>
	<g style="opacity:0.4;">
		<rect x="82.834" y="258.315" style="fill:#1ABC9C;" width="132.667" height="16.5"/>
	</g>
	<g>
		<rect x="215.5" y="109.815" style="fill:#ECF0F1;" width="32" height="165"/>
	</g>
	<g>
		<path style="fill:#1ABC9C;" d="M255.5,109.815h-8v165h8c22.92,0,41.5-18.58,41.5-41.5v-82
			C297,128.395,278.42,109.815,255.5,109.815z"/>
	</g>
	<g style="opacity:0.4;">
		<path style="fill:#1ABC9C;" d="M275.415,114.9c3.24,5.912,5.085,12.697,5.085,19.915v82c0,20.006-14.157,36.703-33,40.625v17.375
			h8c22.92,0,41.5-18.58,41.5-41.5v-82C297,135.612,288.277,121.95,275.415,114.9z"/>
	</g>
	<g>
		<rect x="48.834" y="109.815" style="fill:#ECF0F1;" width="34" height="165"/>
	</g>
	<g>
		<rect x="215.5" y="258.315" style="fill:#C1C1C1;" width="32" height="16.5"/>
	</g>
	<g>
		<rect x="48.834" y="258.315" style="fill:#C1C1C1;" width="34" height="16.5"/>
	</g>
	<g>
		<rect x="99" y="172.315" style="fill:#FFFFFF;" width="99" height="7"/>
	</g>
	<g>
		<rect x="112" y="175.815" style="fill:#FFFFFF;" width="7" height="16.5"/>
	</g>
</g>
<g>
</g>
<g>
</g>
<g>
</g>
<g>
</g>
<g>
</g>
<g>
</g>
<g>
</g>
<g>
</g>
<g>
</g>
<g>
</g>
<g>
</g>
<g>
</g>
<g>
</g>
<g>
</g>
<g>
</g>
</svg>
